<svg xmlns="http://www.w3.org/2000/svg" width="17.578" height="20"><path d="M14.063 17.031a1.758 1.758 0 102.344-1.65V11.65a1.747 1.747 0 000-3.3V4.619a1.758 1.758 0 10-1.172 0V8.35a1.747 1.747 0 000 3.3v3.731a1.755 1.755 0 00-1.172 1.65zM12.3 14.1H2.93a.586.586 0 00-.586.586v4.727A.586.586 0 002.93 20h9.37a.586.586 0 00.586-.586v-4.726a.586.586 0 00-.586-.588zm-7.031 3.516a.586.586 0 11.586-.586.586.586 0 01-.582.587zm4.688 0h-2.34a.586.586 0 010-1.172h2.344a.586.586 0 010 1.172zM0 7.656v4.688a.586.586 0 00.586.586H12.3a.586.586 0 00.586-.586V7.656a.586.586 0 00-.586-.586H.586A.586.586 0 000 7.656zm5.273 1.758h4.688a.586.586 0 010 1.172H5.273a.586.586 0 010-1.172zm-2.344 0a.586.586 0 11-.586.586.586.586 0 01.587-.586zM12.3 5.9a.586.586 0 00.586-.586V.586A.586.586 0 0012.3 0H2.93a.586.586 0 00-.586.586v4.727a.586.586 0 00.586.586zM7.617 2.383h2.344a.586.586 0 010 1.172H7.617a.586.586 0 010-1.172zm-2.344 0a.586.586 0 11-.586.586.586.586 0 01.586-.586z" fill="#2a2a2a"/></svg>