<svg xmlns="http://www.w3.org/2000/svg" width="29.214" height="30" viewBox="0 0 29.214 30">
  <path id="ajuste" d="M35.418,18.288l-2.757-2.156A10.856,10.856,0,0,0,32.726,15a10.529,10.529,0,0,0-.065-1.132l2.76-2.157a1.352,1.352,0,0,0,.326-1.722L32.879,5.025a1.329,1.329,0,0,0-1.659-.6L27.967,5.735A11.155,11.155,0,0,0,26.013,4.6l-.5-3.451A1.327,1.327,0,0,0,24.193,0h-5.75a1.324,1.324,0,0,0-1.323,1.14l-.5,3.464a11.5,11.5,0,0,0-1.95,1.134l-3.262-1.31a1.356,1.356,0,0,0-1.646.586L6.894,9.981a1.344,1.344,0,0,0,.325,1.731l2.757,2.156a9.891,9.891,0,0,0,0,2.264L7.217,18.29a1.352,1.352,0,0,0-.325,1.722l2.868,4.961a1.327,1.327,0,0,0,1.659.6l3.254-1.306A11.254,11.254,0,0,0,16.624,25.4l.5,3.45A1.327,1.327,0,0,0,18.444,30h5.75a1.325,1.325,0,0,0,1.324-1.14l.5-3.462a11.554,11.554,0,0,0,1.95-1.135l3.263,1.31a1.343,1.343,0,0,0,.49.093,1.32,1.32,0,0,0,1.156-.678L35.753,20a1.349,1.349,0,0,0-.335-1.712ZM21.318,20a5,5,0,1,1,5-5A5.005,5.005,0,0,1,21.318,20Z" transform="translate(-6.71)" fill="#2a2a2a"/>
</svg>
