<svg xmlns="http://www.w3.org/2000/svg" width="19.476" height="20" viewBox="0 0 19.476 20">
  <path id="ajuste" d="M25.849,12.192l-1.838-1.437A7.238,7.238,0,0,0,24.054,10a7.02,7.02,0,0,0-.043-.755l1.84-1.438a.9.9,0,0,0,.218-1.148L24.156,3.35a.886.886,0,0,0-1.106-.4l-2.169.871a7.437,7.437,0,0,0-1.3-.756l-.33-2.3A.885.885,0,0,0,18.366,0H14.532a.883.883,0,0,0-.882.76L13.32,3.069a7.667,7.667,0,0,0-1.3.756L9.845,2.952a.9.9,0,0,0-1.1.391L6.833,6.654A.9.9,0,0,0,7.05,7.808L8.888,9.246a6.594,6.594,0,0,0,0,1.509l-1.84,1.438a.9.9,0,0,0-.217,1.148l1.912,3.308a.885.885,0,0,0,1.106.4l2.169-.871a7.5,7.5,0,0,0,1.3.756l.33,2.3a.884.884,0,0,0,.883.768h3.833a.883.883,0,0,0,.882-.76l.331-2.308a7.7,7.7,0,0,0,1.3-.757l2.175.873a.9.9,0,0,0,.327.062.88.88,0,0,0,.771-.452l1.92-3.325a.9.9,0,0,0-.223-1.142Zm-9.4,1.142A3.333,3.333,0,1,1,19.782,10,3.337,3.337,0,0,1,16.449,13.333Z" transform="translate(-6.71)" fill="#2a2a2a"/>
</svg>
