<svg xmlns="http://www.w3.org/2000/svg" width="20" height="14.464"><g fill="#f3f3f3"><path data-name="Caminho 17" d="M16.613 1.934c-.078-.021-.156-.033-.234-.048l-4.88-1.88h-.047c-.1-.008-2.55-.159-4.347 2.839C6.072 4.567 5.67 4.766 5.281 4.957a2.676 2.676 0 00-.989.775c-.787.927-3.084 3.241-4.034 4.193a.787.787 0 00.151 1.269L3.26 12.91l.68 1.145a.817.817 0 00.485.384.789.789 0 00.778-.243l3.5-3.7 3.442 1.811a4.087 4.087 0 001.472.75c2.564.692 5.322-1.241 6.149-4.306s-.59-6.126-3.153-6.817zm-7.462 8.083l1.134-1.2a5.748 5.748 0 00.714 2.171zm2.029-5.826a8.628 8.628 0 01-1.772 2.226 1.15 1.15 0 01-1.1.076L6.93 5.837c-.316-.151-.325-.414-.055-.636a6.213 6.213 0 001.611-2.216.61.61 0 01.81-.331l1.621.725a.56.56 0 01.263.81z"/><path data-name="Caminho 18" d="M.156 11.213l.6 1.114 3 1.8-.593-1.067z"/></g></svg>