<svg xmlns="http://www.w3.org/2000/svg" width="20" height="20"><path data-name="Caminho 19" d="M10.965 8.448l2.681-3.837-3.26-3.037L5.83 3.212l.152 4.293z" fill="#f3f3f3"/><path data-name="Caminho 20" d="M9.228 16.226l2.453 2.555 4.285-1.829.7-3.786-4.254-.524z" fill="#f3f3f3"/><path data-name="Caminho 21" d="M.634 13.58l.054.066a9.619 9.619 0 10-.052-.133zM.521 10a9.425 9.425 0 01.7-3.571l2.367-2.935.612-.983A9.428 9.428 0 0110 .521h.157l1.058.39 2.332.3a9.533 9.533 0 013.8 2.809l-.388 1.691 1.532 4.32.979.248a9.47 9.47 0 01-16.054 6.53l1.84-1.58L3.5 10.7.755 9.759l-.064 2.018A9.459 9.459 0 01.521 10z" fill="#f3f3f3"/></svg>