<svg xmlns="http://www.w3.org/2000/svg" width="26.367" height="30" viewBox="0 0 26.367 30">
  <path id="resumo" d="M52.094,25.547a2.637,2.637,0,1,0,3.516-2.475v-5.6a2.621,2.621,0,0,0,0-4.95v-5.6a2.637,2.637,0,1,0-1.758,0v5.6a2.621,2.621,0,0,0,0,4.95v5.6A2.633,2.633,0,0,0,52.094,25.547Zm-2.637-4.395H35.395a.878.878,0,0,0-.879.879v7.09a.878.878,0,0,0,.879.879H49.457a.878.878,0,0,0,.879-.879v-7.09A.878.878,0,0,0,49.457,21.152ZM38.91,26.426a.879.879,0,1,1,.879-.879A.879.879,0,0,1,38.91,26.426Zm7.031,0H42.426a.879.879,0,0,1,0-1.758h3.516a.879.879,0,0,1,0,1.758ZM31,11.484v7.031a.878.878,0,0,0,.879.879H49.457a.878.878,0,0,0,.879-.879V11.484a.878.878,0,0,0-.879-.879H31.879A.878.878,0,0,0,31,11.484Zm7.91,2.637h7.031a.879.879,0,0,1,0,1.758H38.91a.879.879,0,0,1,0-1.758Zm-3.516,0a.879.879,0,1,1-.879.879A.879.879,0,0,1,35.395,14.121ZM49.457,8.848a.878.878,0,0,0,.879-.879V.879A.878.878,0,0,0,49.457,0H35.395a.878.878,0,0,0-.879.879v7.09a.878.878,0,0,0,.879.879ZM42.426,3.574h3.516a.879.879,0,0,1,0,1.758H42.426a.879.879,0,0,1,0-1.758Zm-3.516,0a.879.879,0,1,1-.879.879A.879.879,0,0,1,38.91,3.574Z" transform="translate(-31)" fill="#2a2a2a"/>
</svg>
