<svg xmlns="http://www.w3.org/2000/svg" width="17.578" height="20" viewBox="0 0 17.578 20">
  <path id="resumo" d="M45.063,17.031a1.758,1.758,0,1,0,2.344-1.65V11.65a1.747,1.747,0,0,0,0-3.3V4.619a1.758,1.758,0,1,0-1.172,0V8.35a1.747,1.747,0,0,0,0,3.3v3.731A1.755,1.755,0,0,0,45.063,17.031ZM43.3,14.1H33.93a.586.586,0,0,0-.586.586v4.727A.586.586,0,0,0,33.93,20H43.3a.586.586,0,0,0,.586-.586V14.688A.586.586,0,0,0,43.3,14.1Zm-7.031,3.516a.586.586,0,1,1,.586-.586A.586.586,0,0,1,36.273,17.617Zm4.688,0H38.617a.586.586,0,0,1,0-1.172h2.344a.586.586,0,0,1,0,1.172ZM31,7.656v4.688a.586.586,0,0,0,.586.586H43.3a.586.586,0,0,0,.586-.586V7.656A.586.586,0,0,0,43.3,7.07H31.586A.586.586,0,0,0,31,7.656Zm5.273,1.758h4.688a.586.586,0,0,1,0,1.172H36.273a.586.586,0,0,1,0-1.172Zm-2.344,0a.586.586,0,1,1-.586.586A.586.586,0,0,1,33.93,9.414ZM43.3,5.9a.586.586,0,0,0,.586-.586V.586A.586.586,0,0,0,43.3,0H33.93a.586.586,0,0,0-.586.586V5.313a.586.586,0,0,0,.586.586ZM38.617,2.383h2.344a.586.586,0,0,1,0,1.172H38.617a.586.586,0,0,1,0-1.172Zm-2.344,0a.586.586,0,1,1-.586.586A.586.586,0,0,1,36.273,2.383Z" transform="translate(-31)" fill="#2a2a2a"/>
</svg>
