<svg xmlns="http://www.w3.org/2000/svg" width="16.25" height="20"><g fill="#2a2a2a"><path data-name="Caminho 13" d="M12.252 2.245l-.672 1.162 2.327 1.343.672-1.162a.673.673 0 00-.247-.918l-1.162-.672a.671.671 0 00-.918.247z"/><path data-name="Caminho 14" d="M8.125 3.025a8.809 8.809 0 011.25.1V2.038l.859-.007V.625A.625.625 0 009.609 0H6.647a.625.625 0 00-.625.625v1.406l.853.007v1.087a8.809 8.809 0 011.25-.1z"/><path data-name="Caminho 15" d="M8.125 3.75a8.125 8.125 0 108.125 8.125A8.125 8.125 0 008.125 3.75zm3.8 11.944l-4.734-3.278V7.789h1.366V11.7l4.146 2.87z"/></g></svg>