<svg xmlns="http://www.w3.org/2000/svg" width="130.42" height="296.191"><path d="M36.816 69.434q0 6.982-6.934 6.982h-23Q0 76.416 0 69.434V51.216h11.425v15.581H25.39v-14.99l-22.9-21.68a8.1 8.1 0 0 1-2.49-6.1V7.031Q0 0 6.885 0h23q6.934 0 6.934 6.934v17.09H25.39V9.616H11.425v13.818l22.901 21.582a8.117 8.117 0 0 1 2.49 6.2Zm40.771 6.982H45.898V0h31.4v10.107H57.324v22.314h17.187v9.912H57.324v23.975h20.263Zm-47.363 100H.195V100h11.426v66.211h18.6Zm38.481 0H37.011V100h31.394v10.107H48.437v22.315h17.188v9.912H48.437v23.975h20.268Zm-30.912 93.018q0 6.982-6.982 6.982H6.982q-6.787 0-6.787-6.982v-62.4q0-7.031 6.787-7.031H30.81q6.982 0 6.982 7.031v17.871H26.416v-15.089H11.621v56.787h14.795v-16.066h11.377Zm-7.568 22.07q0 4.688-4.687 4.688H13.33q-4.687 0-4.687-4.687v-5.322h7.568v4.1h6.394v-4.1q-2.441-1.074-4.932-2.148a4.771 4.771 0 0 1-2.148-4.346v-3.373h7.373v2.979q2.539 1.221 5.078 2.49a5.063 5.063 0 0 1 2.246 4.492Zm55.273-15.088H74.169l-2.294-14.5H57.568l-2.295 14.5H43.994v-.2l14.795-76.318h12.016ZM70.263 252.1l-5.566-34.473-5.615 34.473Zm6.689-60.156q0 4.59-4.59 4.59a21.033 21.033 0 0 1-6.982-1.709q-3.271-1.367-6.543-2.686v4.3h-7.666v-7.723q0-4.59 4.59-4.59a20.061 20.061 0 0 1 6.885 1.66q3.271 1.367 6.641 2.734v-4.3h7.666Zm53.467 77.49q0 6.982-6.934 6.982h-24.8q-6.787 0-6.787-6.982v-62.4q0-7.031 6.787-7.031h24.8q6.934 0 6.934 7.031Zm-11.426-2.832v-56.786H103.32v56.787Z" fill="#FCD45C"/></svg>