<svg xmlns="http://www.w3.org/2000/svg" width="130.42" height="296.191" viewBox="0 0 130.42 296.191">
  <path id="identidade" d="M41.211-6.982Q41.211,0,34.277,0h-23Q4.395,0,4.395-6.982V-25.2H15.82V-9.619H29.785v-14.99l-22.9-21.68a8.1,8.1,0,0,1-2.49-6.1V-69.385q0-7.031,6.885-7.031h23q6.934,0,6.934,6.934v17.09H29.785V-66.8H15.82v13.818L38.721-31.4a8.117,8.117,0,0,1,2.49,6.2ZM81.982,0H50.293V-76.416h31.4v10.107H61.719v22.314H78.906v9.912H61.719v23.975H81.982ZM34.619,100H4.59V23.584H16.016V89.795h18.6ZM73.1,100H41.406V23.584H72.8V33.691H52.832V56.006H70.02v9.912H52.832V89.893H73.1ZM42.188,193.018q0,6.982-6.982,6.982H11.377q-6.787,0-6.787-6.982v-62.4q0-7.031,6.787-7.031H35.205q6.982,0,6.982,7.031v17.871H30.811V133.4H16.016v56.787H30.811V174.121H42.188Zm-7.568,22.07q0,4.688-4.687,4.688H17.725q-4.687,0-4.687-4.687v-5.322h7.568v4.1H27v-4.1q-2.441-1.074-4.932-2.148a4.771,4.771,0,0,1-2.148-4.346V199.9h7.373v2.979q2.539,1.221,5.078,2.49a5.063,5.063,0,0,1,2.246,4.492ZM89.893,200H78.564L76.27,185.5H61.963L59.668,200H48.389v-.2l14.795-76.318H75.2ZM74.658,175.684l-5.566-34.473-5.615,34.473Zm6.689-60.156q0,4.59-4.59,4.59a21.033,21.033,0,0,1-6.982-1.709q-3.271-1.367-6.543-2.686v4.3H55.566V112.3q0-4.59,4.59-4.59a20.061,20.061,0,0,1,6.885,1.66q3.271,1.367,6.641,2.734v-4.3h7.666Zm53.467,77.49q0,6.982-6.934,6.982h-24.8q-6.787,0-6.787-6.982v-62.4q0-7.031,6.787-7.031h24.8q6.934,0,6.934,7.031Zm-11.426-2.832V133.4H107.715v56.787Z" transform="translate(-4.395 76.416)" fill="#0c2d54"/>
</svg>
