<svg xmlns="http://www.w3.org/2000/svg" width="60" height="60"><path d="M60 60H0V0h60v60ZM2.25 2.25v55.5h55.5V2.25Zm41.536 52.045H40.27a1.381 1.381 0 0 1-1.012-.338 1.38 1.38 0 0 1-.337-1.012v-1.533h2.18v1.181h1.842v-1.181c-.448-.2-.913-.4-1.42-.619a1.26 1.26 0 0 1-.464-.51 1.666 1.666 0 0 1-.155-.742v-.942h-2.461a1.967 1.967 0 0 1-1.466-.5 2.094 2.094 0 0 1-.489-1.508V28.619a2.119 2.119 0 0 1 .489-1.519 1.96 1.96 0 0 1 1.466-.506h6.862a2.05 2.05 0 0 1 1.508.506 2.082 2.082 0 0 1 .5 1.519v5.147h-3.277v-4.345h-4.261v16.354h4.261v-4.626h3.277v5.442a2.057 2.057 0 0 1-.5 1.508 2.059 2.059 0 0 1-1.508.5h-2.278v.83c.488.234.98.476 1.462.717a1.41 1.41 0 0 1 .485.541 1.666 1.666 0 0 1 .162.752v1.5a1.381 1.381 0 0 1-.338 1.012 1.381 1.381 0 0 1-1.012.349Zm-9.253-5.7h-8.648V26.587h3.291v19.068h5.357v2.939Zm-13.26 0h-6.624a2.012 2.012 0 0 1-1.487-.5 2.075 2.075 0 0 1-.5-1.508v-5.245h3.291v4.486h4.021v-4.317l-6.595-6.244a2.276 2.276 0 0 1-.538-.784 2.569 2.569 0 0 1-.179-.974v-4.894a2.1 2.1 0 0 1 .5-1.519 2 2 0 0 1 1.487-.506h6.624a2.043 2.043 0 0 1 1.5.5 2.043 2.043 0 0 1 .5 1.5v4.922h-3.291v-4.148h-4.021v3.98l6.6 6.216a2.189 2.189 0 0 1 .538.784 2.676 2.676 0 0 1 .179 1v5.245a2.066 2.066 0 0 1-.5 1.508 2.034 2.034 0 0 1-1.506.503Z" fill="#FCD45C"/></svg>