<svg xmlns="http://www.w3.org/2000/svg" width="56" height="56"><g fill="none"><path d="M0 0h56v56H0Z"/><path d="M2.5 2.5v51h51v-51h-51M0 0h56v56H0V0Z" fill="#0c2d54"/></g><path d="M21.718 43.483a1.653 1.653 0 0 1-1.864 1.877h-6.182a1.647 1.647 0 0 1-1.851-1.877v-4.9h3.072v4.187h3.753v-4.029l-6.155-5.824a2.176 2.176 0 0 1-.669-1.641v-4.567a1.653 1.653 0 0 1 1.85-1.89h6.182a1.647 1.647 0 0 1 1.864 1.864v4.594h-3.072v-3.872h-3.753v3.714l6.156 5.8a2.182 2.182 0 0 1 .669 1.667Zm10.513 1.877h-8.072V24.819h3.071v17.8h5Zm11.931-1.877a1.659 1.659 0 0 1-1.877 1.877h-6.4a1.636 1.636 0 0 1-1.824-1.877V26.709q0-1.89 1.824-1.89h6.4a1.665 1.665 0 0 1 1.877 1.89v4.8h-3.059v-4.056h-3.977v15.264h3.977v-4.318h3.058Zm-2.034 5.932a1.114 1.114 0 0 1-1.26 1.26h-3.282a1.114 1.114 0 0 1-1.26-1.26v-1.431h2.034v1.1h1.719v-1.1q-.656-.289-1.326-.578a1.282 1.282 0 0 1-.578-1.168v-.906h1.982v.8q.683.328 1.365.669a1.361 1.361 0 0 1 .6 1.208Z" fill="#0c2d54"/></svg>